<?xml version="1.0" encoding="UTF-8" standalone="no"?> <svg xmlns="http://www.w3.org/2000/svg" viewBox="0 0 512 512"><title>development, web, coding, programming, software, application, marketing</title><g id="flat"><rect x="128" y="395.214" width="256" height="40.786" style="fill:#092f6a"/><path d="M184,488l227.4-37.9A15.073,15.073,0,0,0,424,435.231h0a40,40,0,0,0-49.7-38.806L184,444Z" style="fill:#0e3e86"/><path d="M155.383,493.366,184,488V444l-64,20h0A29.878,29.878,0,0,0,155.383,493.366Z" style="fill:#092f6a"/><polygon points="360 288 320 288 352 376 388.282 365.833 360 288" style="fill:#ffb3d0"/><polygon points="152 288 192 288 160 376 123.96 365.217 152 288" style="fill:#ffb3d0"/><path d="M161.162,260.513,152,288l35.467,12.465L192,288V392H320V288l4.414,12.137L360,288l-9.162-27.487A30,30,0,0,0,322.377,240H189.623A30,30,0,0,0,161.162,260.513Z" style="fill:#06b790"/><path d="M142.773,392H232V352l-89.228,0a20,20,0,0,0-18.812,13.214h0A20,20,0,0,0,142.773,392Z" style="fill:#ffb3d0"/><path d="M369.254,392H280.033V352l89.22,0a20,20,0,0,1,18.775,13.1h0A20,20,0,0,1,369.254,392Z" style="fill:#ffb3d0"/><rect x="184" y="312" width="144" height="80" style="fill:#5f86fe"/><rect x="184" y="392" width="144" height="16" style="fill:#3a69ff"/><rect x="112" y="24" width="288" height="160" style="fill:#5f86fe"/><rect x="24" y="88" width="176" height="120" style="fill:#83a1ff"/><rect x="312" y="88" width="176" height="120" style="fill:#83a1ff"/><rect x="40" y="232" width="84" height="48" style="fill:#5f86fe"/><path d="M68,272a3.979,3.979,0,0,1-2.4-.8l-16-12a4,4,0,0,1,0-6.4l16-12a4,4,0,1,1,4.8,6.4L58.667,256,70.4,264.8A4,4,0,0,1,68,272Z" style="fill:#3a69ff"/><path d="M100,272a4,4,0,0,1-2.858-6.8l9.009-9.2-9.009-9.2a4,4,0,1,1,5.716-5.6l11.75,12a4,4,0,0,1,0,5.6l-11.75,12A3.987,3.987,0,0,1,100,272Z" style="fill:#3a69ff"/><path d="M80,272a4,4,0,0,1-3.8-5.266l8-24a4,4,0,0,1,7.59,2.53l-8,24A4,4,0,0,1,80,272Z" style="fill:#3a69ff"/><path d="M444,156V140h-8.9a35.775,35.775,0,0,0-4.624-11.159l6.3-6.3L425.456,111.23l-6.3,6.3A35.775,35.775,0,0,0,408,112.9V104H392v8.9a35.775,35.775,0,0,0-11.159,4.624l-6.3-6.3L363.23,122.544l6.3,6.3A35.775,35.775,0,0,0,364.9,140H356v16h8.9a35.775,35.775,0,0,0,4.624,11.159l-6.3,6.3,11.314,11.314,6.3-6.3A35.775,35.775,0,0,0,392,183.1V192h16v-8.9a35.775,35.775,0,0,0,11.159-4.624l6.3,6.3,11.314-11.314-6.3-6.3A35.775,35.775,0,0,0,435.1,156Zm-44,8.5A16.5,16.5,0,1,1,416.5,148,16.5,16.5,0,0,1,400,164.5Z" style="fill:#f2444e"/><circle cx="447.85" cy="311.85" r="31.85" style="fill:#83a1ff"/><path d="M144,44H128a4,4,0,0,1,0-8h16a4,4,0,0,1,0,8Z" style="fill:#3a69ff"/><path d="M144,60H128a4,4,0,0,1,0-8h16a4,4,0,0,1,0,8Z" style="fill:#3a69ff"/><path d="M144,76H128a4,4,0,0,1,0-8h16a4,4,0,0,1,0,8Z" style="fill:#3a69ff"/><path d="M224,44H160a4,4,0,0,1,0-8h64a4,4,0,0,1,0,8Z" style="fill:#3a69ff"/><path d="M384,44H248a4,4,0,0,1,0-8H384a4,4,0,0,1,0,8Z" style="fill:#3a69ff"/><path d="M264,60H160a4,4,0,0,1,0-8H264a4,4,0,0,1,0,8Z" style="fill:#3a69ff"/><path d="M384,60H296a4,4,0,0,1,0-8h88a4,4,0,0,1,0,8Z" style="fill:#3a69ff"/><path d="M200,76H160a4,4,0,0,1,0-8h40a4,4,0,0,1,0,8Z" style="fill:#3a69ff"/><path d="M320,76H216a4,4,0,0,1,0-8H320a4,4,0,0,1,0,8Z" style="fill:#3a69ff"/><path d="M384,76H336a4,4,0,0,1,0-8h48a4,4,0,0,1,0,8Z" style="fill:#3a69ff"/><path d="M256,92H216a4,4,0,0,1,0-8h40a4,4,0,0,1,0,8Z" style="fill:#3a69ff"/><path d="M296,108H248a4,4,0,0,1,0-8h48a4,4,0,0,1,0,8Z" style="fill:#3a69ff"/><path d="M248,124H216a4,4,0,0,1,0-8h32a4,4,0,0,1,0,8Z" style="fill:#3a69ff"/><path d="M296,124H272a4,4,0,0,1,0-8h24a4,4,0,0,1,0,8Z" style="fill:#3a69ff"/><path d="M272,140H216a4,4,0,0,1,0-8h56a4,4,0,0,1,0,8Z" style="fill:#3a69ff"/><path d="M296,140h-8a4,4,0,0,1,0-8h8a4,4,0,0,1,0,8Z" style="fill:#3a69ff"/><path d="M224,156h-8a4,4,0,0,1,0-8h8a4,4,0,0,1,0,8Z" style="fill:#3a69ff"/><path d="M464,308H452V296a4,4,0,0,0-8,0v12H432a4,4,0,0,0,0,8h12v12a4,4,0,0,0,8,0V316h12a4,4,0,0,0,0-8Z" style="fill:#3a69ff"/><polygon points="92 192 80 192 80 168 96 168 92 192" style="fill:#f5a000"/><path d="M70.917,140H80a0,0,0,0,1,0,0v32a0,0,0,0,1,0,0H70.917A6.917,6.917,0,0,1,64,165.083V146.917A6.917,6.917,0,0,1,70.917,140Z" style="fill:#f5a000"/><path d="M272,352a16,16,0,1,1-16-16v16Z" style="fill:#3a69ff"/><path d="M240.918,241.143v-41.8l29.714,22.286v19.513A14.857,14.857,0,0,1,255.775,256h0A14.857,14.857,0,0,1,240.918,241.143Z" style="fill:#ffb3d0"/><path d="M246.861,199.543h23.771a0,0,0,0,1,0,0V235.2a0,0,0,0,1,0,0h0a23.771,23.771,0,0,1-23.771-23.771V199.543a0,0,0,0,1,0,0Z" style="fill:#e67199"/><path d="M240.918,169.829h47.543V214.4A14.857,14.857,0,0,1,273.6,229.257h0a32.686,32.686,0,0,1-32.686-32.686Z" style="fill:#ffb3d0"/><path d="M286.633,157.943h13.714V162.2c0,14.057-5.453,25.453-19.51,25.453h0a25.444,25.444,0,0,1-8.29-1.388l-13.8-4.753h0a18.027,18.027,0,0,1-18.028,18.027H232l0-21.762A25.775,25.775,0,0,1,257.776,152h0a25.775,25.775,0,0,1,6.958.957l13.823,3.875A29.907,29.907,0,0,0,286.633,157.943Z" style="fill:#0e3e86"/><circle cx="241.033" cy="199.954" r="9.029" style="fill:#ffb3d0"/><path d="M328,488,100.6,450.1A15.073,15.073,0,0,1,88,435.231h0a40,40,0,0,1,49.7-38.806L328,444Z" style="fill:#1b53a6"/><path d="M352.685,492.628,328,488V444l64,16h0A33.2,33.2,0,0,1,352.685,492.628Z" style="fill:#092f6a"/><rect x="24" y="88" width="176" height="24" style="fill:#3a69ff"/><circle cx="40" cy="100" r="4" style="fill:#83a1ff"/><circle cx="56" cy="100" r="4" style="fill:#83a1ff"/><circle cx="72" cy="100" r="4" style="fill:#83a1ff"/><polygon points="152 128 152 184 80 172 80 140 152 128" style="fill:#fcc419"/><path d="M152,152H136a4,4,0,0,1,0-8h16Z" style="fill:#e67701"/><path d="M152,168H136a4,4,0,0,1,0-8h16Z" style="fill:#e67701"/><path d="M142.773,356a4,4,0,0,1,0-8L164,348a4,4,0,0,1,0,8Z" style="fill:#e67199"/><path d="M348,356a4,4,0,0,1,0-8l21.253,0h0a4,4,0,0,1,0,8L348,356Z" style="fill:#e67199"/></g></svg>